# xmcd CD database file
#
# Track frame offsets:
#	150
#	17619
#	35984
#	55976
#	77030
#	95317
#	112154
#	130281
#	150453
#	169178
#	188730
#
# Disc length: 2772 seconds
#
# Revision: 2
# Processed by: cddbd v1.5.2PL0 Copyright (c) Steve Scherf et al.
# Submitted via: CDex 1.70beta3
#
DISCID=8d0ad20b
DTITLE=倉木麻衣 - delicious way
DYEAR=2000
DGENRE=JPop
TTITLE0=Delicious Way
TTITLE1=Love,Day After Tomorrow
TTITLE2=Secret of my heart
TTITLE3=Stepping ∞ Out
TTITLE4=Baby Tonight ～ You and Me ～
TTITLE5=Can't get enough ～ gimme your love ～
TTITLE6=NEVER GONNA GIVE YOU UP
TTITLE7=Stay by my side
TTITLE8=Everything's All Right
TTITLE9=happy days
TTITLE10=君との時間
EXTD=YEAR: 2000
EXTT0=
EXTT1=
EXTT2=
EXTT3=
EXTT4=
EXTT5=
EXTT6=
EXTT7=
EXTT8=
EXTT9=
EXTT10=
PLAYORDER=
